<svg width="36" height="28" viewBox="0 0 36 28" fill="none" xmlns="http://www.w3.org/2000/svg">
<path fill-rule="evenodd" clip-rule="evenodd" d="M36 6V3C36 1.34375 34.6562 0 33 0H3C1.34375 0 0 1.34375 0 3V6H36ZM3 28C1.34375 28 0 26.6562 0 25V14H36V25C36 26.6562 34.6562 28 33 28H3ZM12.75 20C12.3375 20 12 20.3375 12 20.75V23.25C12 23.6625 12.3375 24 12.75 24H21.25C21.6625 24 22 23.6625 22 23.25V20.75C22 20.3375 21.6625 20 21.25 20H12.75ZM4 20.75C4 20.3375 4.3375 20 4.75 20H9.25C9.6625 20 10 20.3375 10 20.75V23.25C10 23.6625 9.6625 24 9.25 24H4.75C4.3375 24 4 23.6625 4 23.25V20.75Z" fill="black"/>
</svg>
