<svg width="34" height="34" viewBox="0 0 34 34" fill="none" xmlns="http://www.w3.org/2000/svg">
<path fill-rule="evenodd" clip-rule="evenodd" d="M12.0134 25.0348C11.05 25.0348 10.1303 25.0411 9.21087 25.0243C9.12672 25.0227 8.97499 24.874 8.97341 24.7915C8.95636 23.8702 8.9627 22.9486 8.9627 21.9954H12.0134V25.0348ZM6 19H15V28H6V19Z" fill="#1D1D1B"/>
<path fill-rule="evenodd" clip-rule="evenodd" d="M8.96341 12.0013C8.96341 11.0436 8.95846 10.1081 8.97313 9.17299C8.97422 9.10027 9.11204 8.96852 9.18788 8.96733C10.1221 8.95304 11.0567 8.958 12.0034 8.958V12.0013H8.96341ZM6 6H15V15H6V6Z" fill="#1D1D1B"/>
<path fill-rule="evenodd" clip-rule="evenodd" d="M22.0034 25.0242V21.997H25.0408C25.0408 22.9446 25.0471 23.8504 25.0309 24.7557C25.0293 24.8465 24.8915 25.0111 24.8145 25.0126C23.8778 25.0304 22.9407 25.0242 22.0034 25.0242ZM19 19H28V28H19V19Z" fill="#1D1D1B"/>
<path fill-rule="evenodd" clip-rule="evenodd" d="M2.95414 25H0V34H9V31.0798C8.82443 31.0719 8.64886 31.0575 8.4732 31.0573C6.80053 31.0556 5.12776 31.0453 3.45529 31.0644C3.06886 31.0687 2.94002 30.9683 2.94539 30.5651C2.96716 28.9084 2.95424 27.2512 2.95414 25.5942V25Z" fill="#1D1D1B"/>
<path fill-rule="evenodd" clip-rule="evenodd" d="M34 25H31.0673C31.0673 25.2075 31.0674 25.3836 31.0673 25.56C31.0669 27.2243 31.0563 28.8889 31.0735 30.553C31.0773 30.9203 30.9704 31.0351 30.5982 31.0311C28.9294 31.0134 27.2603 31.0234 25.5912 31.0234H25.0014C25.0014 31.9634 24.9973 32.848 25.0032 33.7324C25.0057 34.0842 25.2875 33.9878 25.4791 33.9882C27.5944 33.994 29.7096 33.9919 31.8247 33.9919C32.5344 33.992 33.2441 33.9919 34 33.9919V25Z" fill="#1D1D1B"/>
<path fill-rule="evenodd" clip-rule="evenodd" d="M0 9H2.92427C2.93235 8.81896 2.9468 8.64466 2.947 8.47027C2.9488 6.80037 2.96166 5.13028 2.93873 3.46058C2.93295 3.03765 3.0728 2.93631 3.47751 2.94068C5.30199 2.96043 7.12697 2.94931 9 2.94931V0H0V9Z" fill="#1D1D1B"/>
<path fill-rule="evenodd" clip-rule="evenodd" d="M34 9V0H25V2.92394C25.1885 2.93279 25.3645 2.94811 25.5403 2.94831C27.1951 2.9502 28.85 2.96562 30.5041 2.93876C30.955 2.9315 31.0587 3.07921 31.0528 3.50546C31.03 5.14519 31.0437 6.78531 31.0437 8.42544V9H34Z" fill="#1D1D1B"/>
<path fill-rule="evenodd" clip-rule="evenodd" d="M23 11.9841H29V6H26.0515C26.0515 6.80527 26.0521 7.59045 26.0513 8.37562C26.0507 9.01149 26.05 9.01198 25.3955 9.01248C24.6224 9.01317 23.8492 9.01267 23.0162 9.01267V12L23 11.9841Z" fill="#1D1D1B"/>
<path fill-rule="evenodd" clip-rule="evenodd" d="M23 11.0211H19V15H22.9778C22.9778 13.6624 22.9778 12.3313 22.9781 11C22.9784 10.9999 23 11.0211 23 11.0211Z" fill="#1D1D1B"/>
<path fill-rule="evenodd" clip-rule="evenodd" d="M19 6H23V10H19V6Z" fill="#1D1D1B"/>
<path fill-rule="evenodd" clip-rule="evenodd" d="M13 24.9985V21H9.00151C9.00151 22.254 8.9932 23.4665 9.01554 24.6784C9.01762 24.787 9.21649 24.9826 9.32678 24.9846C10.5318 25.0067 11.7373 24.9985 13 24.9985Z" fill="#FEFEFE"/>
<path fill-rule="evenodd" clip-rule="evenodd" d="M9.00106 13H13V9.00109C11.7547 9.00109 10.5253 8.99458 9.29634 9.01335C9.19657 9.01491 9.01528 9.18803 9.01384 9.28358C8.99454 10.5124 9.00106 11.7415 9.00106 13Z" fill="#FEFEFE"/>
<path fill-rule="evenodd" clip-rule="evenodd" d="M21 24.9986C22.2339 24.9986 23.4675 25.0069 24.7004 24.9833C24.8019 24.9813 24.9832 24.7639 24.9853 24.6439C25.0068 23.4481 24.9984 22.2517 24.9984 21H21V24.9986Z" fill="#FEFEFE"/>
</svg>
