<svg width="28" height="28" viewBox="0 0 28 28" fill="none" xmlns="http://www.w3.org/2000/svg">
<path d="M16.2115 12.4629H27.3338C27.7017 12.4629 28 12.1644 28 11.7963V0.666667C28 0.2985 27.7017 0 27.3338 0H24.6689C24.3009 0 24.0026 0.2985 24.0026 0.666667V5.00622C21.4614 2.18217 17.7701 0.415 13.6664 0.444833C6.06553 0.500056 -0.0161228 6.64611 3.24249e-05 14.2522C0.0161877 21.8477 6.1744 28 13.7687 28C17.3268 28 20.5695 26.6493 23.0131 24.4325C23.2962 24.1757 23.3093 23.7351 23.0391 23.4647L21.1532 21.5777C20.9048 21.3291 20.5058 21.3156 20.2427 21.5485C18.5196 23.0742 16.2533 24 13.7687 24C8.36845 24 3.99734 19.6269 3.99734 14.2222C3.99734 8.8185 8.36757 4.44444 13.7687 4.44444C17.0163 4.44444 19.8913 6.02644 21.6676 8.46294H16.2115C15.8436 8.46294 15.5453 8.76144 15.5453 9.12961V11.7963C15.5453 12.1644 15.8436 12.4629 16.2115 12.4629Z" fill="black"/>
</svg>
